<?xml version="1.0" encoding="UTF-8"?> <svg xmlns="http://www.w3.org/2000/svg" xmlns:xlink="http://www.w3.org/1999/xlink" viewBox="0 0 200 40.17"><defs><style>.cls-1{fill:#3f76b3;}.cls-2{fill:#23335c;}.cls-3{fill:#211f1f;}.cls-4{fill:url(#linear-gradient);}.cls-5{fill:url(#linear-gradient-2);}.cls-6{fill:url(#linear-gradient-3);}.cls-7{fill:url(#linear-gradient-4);}.cls-8{fill:url(#linear-gradient-5);}.cls-9{fill:url(#linear-gradient-6);}.cls-10{fill:url(#linear-gradient-7);}.cls-11{fill:url(#linear-gradient-8);}</style><linearGradient id="linear-gradient" x1="29.36" y1="12.28" x2="128.31" y2="19.33" gradientUnits="userSpaceOnUse"><stop offset="0.01" stop-color="#b41c1a"></stop><stop offset="0.07" stop-color="#ad222a"></stop><stop offset="0.18" stop-color="#9c3353"></stop><stop offset="0.34" stop-color="#814d95"></stop><stop offset="0.34" stop-color="#804e97"></stop><stop offset="0.65" stop-color="#2a3077"></stop><stop offset="0.75" stop-color="#396297"></stop><stop offset="0.86" stop-color="#4794b7"></stop><stop offset="0.95" stop-color="#51b3cb"></stop><stop offset="0.99" stop-color="#54bfd2"></stop></linearGradient><linearGradient id="linear-gradient-2" x1="29.49" y1="10.52" x2="128.44" y2="17.57" xlink:href="#linear-gradient"></linearGradient><linearGradient id="linear-gradient-3" x1="29.63" y1="8.5" x2="128.58" y2="15.55" xlink:href="#linear-gradient"></linearGradient><linearGradient id="linear-gradient-4" x1="205.51" y1="11.96" x2="121.47" y2="13.05" gradientUnits="userSpaceOnUse"><stop offset="0.01" stop-color="#1873b7"></stop><stop offset="1" stop-color="#2a3177"></stop></linearGradient><linearGradient id="linear-gradient-5" x1="205.51" y1="12.14" x2="121.47" y2="13.22" xlink:href="#linear-gradient-4"></linearGradient><linearGradient id="linear-gradient-6" x1="205.51" y1="12.41" x2="121.47" y2="13.5" xlink:href="#linear-gradient-4"></linearGradient><linearGradient id="linear-gradient-7" x1="205.52" y1="12.78" x2="121.48" y2="13.87" xlink:href="#linear-gradient-4"></linearGradient><linearGradient id="linear-gradient-8" x1="205.52" y1="12.81" x2="121.48" y2="13.9" xlink:href="#linear-gradient-4"></linearGradient></defs><g id="Layer_2" data-name="Layer 2"><g id="Layer_1-2" data-name="Layer 1"><path d="M23.1,12.51,19.46,10a.08.08,0,0,0-.08,0L15.3,11.64,13.43,4.37l0,0L8,0a.07.07,0,0,0-.09,0,.08.08,0,0,0,0,.07l0,5.25L.44.44a.09.09,0,0,0-.1,0,.08.08,0,0,0,0,.09L2.58,9.9v0h0L8.92,15.8l-3.25,5L.07,22a.07.07,0,0,0-.07.06.1.1,0,0,0,0,.09l4.27,3,.05,0,0,0,5.37-4.28,0-.05,6.68-2.54h0l0,0h0L20.1,13.4l3-.74a.09.09,0,0,0,.06-.07A.07.07,0,0,0,23.1,12.51ZM8.05.26l5.22,4.18,1.87,7.26-1.36.54L11.6,7.83s0,0,0,0L8,5.44Zm8.43,17.81L15,14.79l-1.15-2.33,6,.93ZM9.6,20.76H5.88l3.18-4.86,7.15,2.36Zm4-8.28h.09l1.18,2.4,1.43,3.24L9.07,15.71,3,10ZM11.46,7.93l2.16,4.38h0L2.73,9.81.52.7ZM4.36,25,.29,22.15l5.44-1.23H9.49ZM20.05,13.24l-6-.93,5.34-2.12,3.45,2.35Z"></path><polygon class="cls-1" points="20.1 13.4 13.88 12.46 13.78 12.24 19.38 10.02 23.1 12.51 23.08 12.66 20.1 13.4"></polygon><polygon class="cls-2" points="16.53 18.29 20.1 13.4 13.7 12.46 16.31 18.1 16.53 18.29"></polygon><polygon class="cls-2" points="15.29 11.64 13.4 4.32 8.02 0.02 7.82 0.02 7.84 5.33 11.57 7.69 13.78 12.24 15.29 11.64"></polygon><polygon class="cls-1" points="13.88 12.46 11.57 7.69 0.34 0.44 2.58 9.9 13.88 12.46"></polygon><polygon class="cls-3" points="16.31 18.1 13.7 12.46 2.7 10.03 9.07 15.71 16.31 18.1"></polygon><polygon class="cls-2" points="5.88 20.75 9.06 15.89 16.21 18.25 9.63 20.76 5.88 20.75"></polygon><polygon class="cls-1" points="0.04 22.18 5.88 20.75 9.63 20.76 4.31 25.19 0.04 22.18"></polygon><path class="cls-4" d="M30.46,22.79v-20H42A10.38,10.38,0,0,1,46,3.5a9,9,0,0,1,5.1,5.1,10.45,10.45,0,0,1,.73,4,10.91,10.91,0,0,1-.73,4,9.76,9.76,0,0,1-2,3.24A9.46,9.46,0,0,1,46,22a9.69,9.69,0,0,1-3.91.79ZM42,19.29a6.18,6.18,0,0,0,2.49-.49,6.11,6.11,0,0,0,2-1.37,6,6,0,0,0,1.31-2.07,7.26,7.26,0,0,0,.47-2.62,7.15,7.15,0,0,0-.47-2.6,6.05,6.05,0,0,0-1.31-2.05,6.16,6.16,0,0,0-2-1.33A6.35,6.35,0,0,0,42,6.28H33.93v13Z"></path><path class="cls-5" d="M60,17.23V13.84h8a3.86,3.86,0,0,0,2.88-1,3.79,3.79,0,0,0,1-2.75A3.71,3.71,0,0,0,71,7.3a3.93,3.93,0,0,0-2.88-1H57.48V22.79H54v-20H68.07a8.8,8.8,0,0,1,3.1.51,6.51,6.51,0,0,1,2.29,1.43A6.11,6.11,0,0,1,74.89,7a8.41,8.41,0,0,1,.5,3,8.47,8.47,0,0,1-.5,3,6.44,6.44,0,0,1-1.43,2.29,6.51,6.51,0,0,1-2.29,1.5,8.36,8.36,0,0,1-3.1.54Z"></path><path class="cls-6" d="M87.33,22.79A9.56,9.56,0,0,1,83.46,22a9.44,9.44,0,0,1-5.11-5.38,10.91,10.91,0,0,1-.73-4,10.62,10.62,0,0,1,.73-4,8.8,8.8,0,0,1,2-3.09,9,9,0,0,1,3.08-2,10.44,10.44,0,0,1,3.87-.71H92.2a10.68,10.68,0,0,1,4,.72,8.9,8.9,0,0,1,5.1,5.1,10.64,10.64,0,0,1,.71,4,10.91,10.91,0,0,1-.73,4A9.39,9.39,0,0,1,96.13,22a9.71,9.71,0,0,1-3.93.79Zm4.87-3.5a6.34,6.34,0,0,0,2.53-.49,6.09,6.09,0,0,0,2-1.37A6.18,6.18,0,0,0,98,15.36a7.26,7.26,0,0,0,.47-2.62,7.15,7.15,0,0,0-.47-2.6,5.81,5.81,0,0,0-3.3-3.38,6.52,6.52,0,0,0-2.53-.48H87.33a6.35,6.35,0,0,0-2.49.48,6,6,0,0,0-2,1.33,6.12,6.12,0,0,0-1.29,2,7.09,7.09,0,0,0-.47,2.61,7.26,7.26,0,0,0,.47,2.62,6.15,6.15,0,0,0,1.29,2.07,6,6,0,0,0,2,1.37,6.18,6.18,0,0,0,2.49.49Z"></path><path class="cls-7" d="M125.51,21.83a20.61,20.61,0,0,1-6.36,1.05,11.18,11.18,0,0,1-7.74-2.53,9.53,9.53,0,0,1-2.89-7.16c0-5.74,4.27-9.93,11.21-9.93a13.64,13.64,0,0,1,5.16.88l-.64,2a11.4,11.4,0,0,0-4.58-.83c-5,0-8.32,2.91-8.32,7.73s3.16,7.76,8,7.76a9.47,9.47,0,0,0,3.57-.51V14.58h-4.21v-2h6.82Z"></path><path class="cls-8" d="M129.59,3.72a29.69,29.69,0,0,1,5.13-.4c2.86,0,4.7.48,6,1.57a4.59,4.59,0,0,1,1.63,3.65,5.1,5.1,0,0,1-3.9,4.9v.09c1.6.51,2.55,1.88,3,3.88a29.09,29.09,0,0,0,1.6,5.27h-2.77a24.53,24.53,0,0,1-1.38-4.59c-.61-2.65-1.72-3.65-4.14-3.73h-2.52v8.32h-2.68Zm2.68,8.75H135c2.86,0,4.67-1.45,4.67-3.65,0-2.48-1.94-3.56-4.76-3.59a11.4,11.4,0,0,0-2.64.23Z"></path><path class="cls-9" d="M163.91,12.87c0,6.62-4.33,10.13-9.62,10.13-5.47,0-9.31-3.94-9.31-9.76,0-6.1,4.09-10.09,9.62-10.09S163.91,7.17,163.91,12.87Zm-16.07.32c0,4.1,2.4,7.78,6.61,7.78s6.63-3.62,6.63-8c0-3.83-2.15-7.82-6.6-7.82S147.84,9,147.84,13.19Z"></path><path class="cls-10" d="M170.05,3.46V14.84c0,4.31,2.06,6.13,4.82,6.13,3.07,0,5-1.88,5-6.13V3.46h2.7V14.67c0,5.9-3.34,8.33-7.83,8.33-4.24,0-7.43-2.26-7.43-8.22V3.46Z"></path><path class="cls-11" d="M187.25,3.69a33.28,33.28,0,0,1,5.13-.37c2.64,0,4.58.57,5.81,1.59a5,5,0,0,1,1.81,4,5.38,5.38,0,0,1-1.6,4.1,8.94,8.94,0,0,1-6.33,2.11,9.52,9.52,0,0,1-2.15-.17v7.7h-2.67ZM189.92,13a9.89,9.89,0,0,0,2.22.2c3.22,0,5.19-1.46,5.19-4.11s-1.94-3.76-4.89-3.76a12.6,12.6,0,0,0-2.52.19Z"></path><path class="cls-2" d="M32.51,31.07h-2v-.8h5v.8h-2v6.68h-.93Z"></path><path class="cls-2" d="M37,29.93h.93v3.21h0a1.78,1.78,0,0,1,.63-.62,1.7,1.7,0,0,1,.91-.25c.71,0,1.69.47,1.69,2.17v3.31h-.94v-3.2c0-.81-.27-1.5-1.08-1.5a1.34,1.34,0,0,0-1.23,1.38v3.32H37Z"></path><path class="cls-2" d="M44.51,30.9a.56.56,0,0,1-.59.59.55.55,0,0,1-.56-.59.57.57,0,0,1,.57-.59A.56.56,0,0,1,44.51,30.9Zm-1,6.85V32.38h.93v5.37Z"></path><path class="cls-2" d="M46.73,33.81c0-.58,0-1,0-1.43h.83l.05.81h0a1.79,1.79,0,0,1,1.61-.92c.74,0,1.71.48,1.71,2.15v3.33H50V34.54c0-.79-.27-1.49-1.1-1.49a1.24,1.24,0,0,0-1.16,1,2,2,0,0,0-.06.46v3.28h-.93Z"></path><path class="cls-2" d="M54.15,34.85h0c.12-.19.28-.42.42-.61L56,32.38h1.1L55.23,34.6l2.12,3.15H56.23l-1.64-2.57-.44.54v2h-.93V29.93h.93Z"></path><path class="cls-2" d="M61.76,30.37a12.68,12.68,0,0,1,2.05-.15,3.31,3.31,0,0,1,2.21.6,2.13,2.13,0,0,1,.75,1.7,2.41,2.41,0,0,1-.67,1.78,3.23,3.23,0,0,1-2.24.77,3.63,3.63,0,0,1-.5,0v2.71h-1.6Zm1.6,3.4a3,3,0,0,0,.47,0,1.17,1.17,0,0,0,1.33-1.21A1.06,1.06,0,0,0,64,31.47a2.56,2.56,0,0,0-.6.06Z"></path><path class="cls-2" d="M71.25,37.75l-.1-.54h0a1.76,1.76,0,0,1-1.44.65A1.61,1.61,0,0,1,68,36.2c0-1.42,1.26-2.06,3-2.06v-.09c0-.33-.18-.71-.92-.71a2.8,2.8,0,0,0-1.38.38l-.3-1a4.22,4.22,0,0,1,2-.46,2,2,0,0,1,2.24,2.31v1.93a8,8,0,0,0,.08,1.3ZM71,35.16c-.76,0-1.45.2-1.45.87a.61.61,0,0,0,.63.68.84.84,0,0,0,.79-.58.8.8,0,0,0,0-.27Z"></path><path class="cls-2" d="M75.77,32.32,76.5,35l.24,1h0c.06-.29.13-.66.2-1l.61-2.72h1.69l-1.22,3.76a8.18,8.18,0,0,1-1.7,3.32,2.8,2.8,0,0,1-1.51.77l-.38-1.37a2.44,2.44,0,0,0,.73-.33,2,2,0,0,0,.62-.67.55.55,0,0,0,.09-.24.84.84,0,0,0-.06-.26l-1.84-5Z"></path><path class="cls-2" d="M80.75,34c0-.65,0-1.21,0-1.7h1.38l.07.7h0a1.79,1.79,0,0,1,1.53-.81,1.42,1.42,0,0,1,1.4.87h0a2.08,2.08,0,0,1,.66-.63,1.81,1.81,0,0,1,1-.24c1,0,1.7.74,1.7,2.27v3.27H86.86v-3c0-.73-.19-1.2-.71-1.2a.76.76,0,0,0-.71.56,1.7,1.7,0,0,0,0,.41v3.26H83.81V34.6c0-.6-.19-1.08-.7-1.08a.79.79,0,0,0-.72.57,1.42,1.42,0,0,0-.06.42v3.24H80.75Z"></path><path class="cls-2" d="M91.8,35.57c0,.74.67,1.07,1.42,1.07a4,4,0,0,0,1.35-.22l.22,1.11a4.89,4.89,0,0,1-1.82.32,2.5,2.5,0,0,1-2.72-2.74,2.64,2.64,0,0,1,2.57-2.9c1.58,0,2.25,1.23,2.25,2.66a3.44,3.44,0,0,1-.06.7Zm1.77-1.12c0-.49-.17-1.14-.84-1.14s-.9.66-.94,1.14Z"></path><path class="cls-2" d="M96.85,34c0-.65,0-1.21,0-1.7h1.41l.07.71h0a1.86,1.86,0,0,1,1.57-.82c1.09,0,1.8.76,1.8,2.24v3.3h-1.62V34.62c0-.63-.21-1.09-.76-1.09a.82.82,0,0,0-.77.59,1.37,1.37,0,0,0-.06.44v3.19H96.85Z"></path><path class="cls-2" d="M105.53,30.79v1.53h1.17V33.5h-1.17v2.12c0,.65.19.91.63.91a2,2,0,0,0,.47-.05v1.24a3.64,3.64,0,0,1-1,.13,1.66,1.66,0,0,1-1.21-.44,2.13,2.13,0,0,1-.46-1.59V33.5h-.7V32.32h.7V31.17Z"></path><path class="cls-2" d="M108.39,36.33a3,3,0,0,0,1.31.36c.47,0,.69-.17.69-.45s-.17-.43-.75-.66c-1.06-.42-1.42-1-1.42-1.61a1.85,1.85,0,0,1,2.09-1.76,3.25,3.25,0,0,1,1.4.29l-.29,1.13a2.43,2.43,0,0,0-1-.28c-.4,0-.61.19-.61.45s.19.39.81.64c1,.38,1.35.93,1.35,1.66,0,1-.79,1.75-2.22,1.75a3.44,3.44,0,0,1-1.6-.36Z"></path></g></g></svg> 