<svg xmlns="http://www.w3.org/2000/svg" width="65" height="65" viewBox="0 0 65 65">
    <g fill="none" fill-rule="evenodd" transform="translate(1 1)">
        <circle cx="31.5" cy="31.5" r="31.5" stroke="#FF7000" stroke-width="1.144"/>
        <g fill="#FF7000" fill-rule="nonzero">
            <path d="M32.177 31.185V19.608c0-.393-.3-.708-.677-.708-.376 0-.677.315-.677.708v11.577c-1.57.33-2.76 1.784-2.76 3.527 0 1.742 1.19 3.196 2.76 3.526v5.154c0 .393.3.708.677.708.376 0 .677-.315.677-.708v-5.154c1.57-.33 2.76-1.784 2.76-3.526 0-1.737-1.185-3.196-2.76-3.527zM31.5 36.89c-1.149 0-2.082-.977-2.082-2.178 0-1.202.933-2.178 2.082-2.178 1.149 0 2.082.976 2.082 2.178 0 1.201-.933 2.178-2.082 2.178zM23.014 25.245v-5.637c0-.393-.301-.708-.678-.708-.376 0-.677.315-.677.708v5.637c-1.57.33-2.759 1.784-2.759 3.526 0 1.742 1.189 3.196 2.76 3.527v11.094c0 .393.3.708.676.708.377 0 .678-.315.678-.708v-11.1c1.57-.33 2.759-1.784 2.759-3.526 0-1.742-1.19-3.19-2.76-3.521zm-.678 5.704c-1.148 0-2.082-.976-2.082-2.178s.934-2.178 2.082-2.178c1.15 0 2.082.976 2.082 2.178s-.938 2.178-2.082 2.178zM41.34 25.243v-5.635c0-.393-.3-.708-.676-.708-.377 0-.678.315-.678.708v5.635c-1.57.33-2.759 1.784-2.759 3.526 0 1.742 1.19 3.195 2.76 3.526v11.097c0 .393.3.708.677.708.376 0 .677-.315.677-.708V32.29c1.57-.33 2.759-1.784 2.759-3.526 0-1.742-1.184-3.19-2.76-3.52zm-.676 5.703c-1.15 0-2.082-.975-2.082-2.177 0-1.201.933-2.177 2.082-2.177 1.148 0 2.082.976 2.082 2.177 0 1.202-.934 2.177-2.082 2.177z"/>
        </g>
    </g>
</svg>
