<svg xmlns="http://www.w3.org/2000/svg" width="65" height="65" viewBox="0 0 65 65">
    <g fill="none" fill-rule="evenodd" transform="translate(1 1)">
        <circle cx="31.5" cy="31.5" r="31.5" stroke="#FF7000" stroke-width="1.144"/>
        <g fill="#FF7000" fill-rule="nonzero">
            <path d="M43.111 24.272c.34 0 .615-.276.615-.616v-6.69a1.848 1.848 0 0 0-1.845-1.846H19.486a1.848 1.848 0 0 0-1.846 1.846v27.808c0 1.018.828 1.846 1.846 1.846h22.395a1.848 1.848 0 0 0 1.845-1.846v-4.532a.615.615 0 0 0-1.23 0v4.532c0 .34-.276.616-.615.616H19.486a.616.616 0 0 1-.615-.616V16.966c0-.34.276-.616.615-.616h22.395c.339 0 .615.276.615.616v6.69c0 .34.275.616.615.616z"/>
            <path d="M30.683 18.442a5.667 5.667 0 0 0-5.66 5.66 5.645 5.645 0 0 0 1.843 4.176 5.638 5.638 0 0 0 3.817 1.485 5.638 5.638 0 0 0 3.884-1.547 5.644 5.644 0 0 0 1.777-4.114c0-3.12-2.54-5.66-5.66-5.66zm0 10.09a4.406 4.406 0 0 1-2.675-.902 3.056 3.056 0 0 1 2.675-1.559c1.126 0 2.135.6 2.676 1.559a4.406 4.406 0 0 1-2.676.902zm-.984-4.676v-.4a.986.986 0 0 1 1.969 0v.4a.986.986 0 0 1-1.969 0zm4.55 2.872a4.268 4.268 0 0 0-1.814-1.519c.29-.375.463-.844.463-1.353v-.4a2.217 2.217 0 0 0-2.215-2.214 2.217 2.217 0 0 0-2.214 2.214v.4c0 .51.173.978.462 1.353a4.268 4.268 0 0 0-1.812 1.52 4.406 4.406 0 0 1-.865-2.627 4.435 4.435 0 0 1 4.43-4.43 4.435 4.435 0 0 1 4.43 4.43c0 .983-.323 1.891-.866 2.626zM34.006 42.067h-3.323a.615.615 0 0 0 0 1.23h3.323a.615.615 0 0 0 0-1.23zM34.006 38.622h-8.737a.615.615 0 0 0 0 1.23h8.737a.615.615 0 0 0 0-1.23zM34.006 35.177h-8.737a.615.615 0 0 0 0 1.23h8.737a.615.615 0 0 0 0-1.23zM23.077 31.912a.62.62 0 0 0-1.05.435.62.62 0 0 0 .614.615c.162 0 .32-.066.436-.18a.62.62 0 0 0 .18-.435.62.62 0 0 0-.18-.435zM23.077 35.357a.621.621 0 0 0-.436-.18.62.62 0 0 0-.435.18.62.62 0 0 0-.18.435.62.62 0 0 0 .615.615c.162 0 .32-.066.436-.18a.62.62 0 0 0 .18-.435.62.62 0 0 0-.18-.435zM23.077 38.802a.621.621 0 0 0-.436-.18.62.62 0 0 0-.435.18.62.62 0 0 0-.18.435.62.62 0 0 0 .615.615.62.62 0 0 0 .436-.18.62.62 0 0 0 .18-.435.62.62 0 0 0-.18-.435zM34.006 31.731h-8.737a.615.615 0 0 0 0 1.23h8.737a.615.615 0 0 0 0-1.23zM47.848 23.138a2.567 2.567 0 0 0-1.96-.258 2.567 2.567 0 0 0-1.57 1.204l-7.742 13.41a.616.616 0 0 0-.079.239l-.544 4.881a.615.615 0 0 0 .976.564l3.955-2.913a.614.614 0 0 0 .168-.188l7.742-13.41a2.587 2.587 0 0 0-.946-3.53zM37.331 41.353l.285-2.549 1.78 1.028-2.065 1.521zm2.963-2.424l-2.345-1.353 6.213-10.761 2.345 1.353-6.213 10.761zm7.434-12.877l-.606 1.05-2.345-1.353.607-1.05c.18-.313.473-.537.822-.63.35-.094.714-.046 1.027.134.313.181.537.473.63.822.094.35.046.714-.135 1.027z"/>
        </g>
    </g>
</svg>
