<svg xmlns="http://www.w3.org/2000/svg" width="65" height="65" viewBox="0 0 65 65">
    <g fill="none" fill-rule="evenodd" transform="translate(1 1)">
        <circle cx="31.5" cy="31.5" r="31.5" stroke="#FF7000" stroke-width="1.144"/>
        <g fill="#FF7000" fill-rule="nonzero">
            <path d="M44.808 15.12H18.12c-.96 0-1.74.781-1.74 1.74v9.76c0 10.3 5.677 19.65 14.816 24.403l.267.14.268-.139A27.42 27.42 0 0 0 46.548 26.62V16.86c0-.959-.78-1.74-1.74-1.74zm.58 11.5a26.26 26.26 0 0 1-13.924 23.233 26.26 26.26 0 0 1-13.923-23.234V16.86c0-.32.26-.58.58-.58h26.687c.32 0 .58.26.58.58v9.76z"/>
            <path d="M39.815 24.982c-1.77 0-3.493.354-5.121 1.052l-.91.39v-.861h-1.16v2.712c0 2.341.353 4.657 1.048 6.889l-2.208 1.325-2.207-1.325a23.137 23.137 0 0 0 1.047-6.89v-2.711h-1.16v.86l-.91-.39a12.921 12.921 0 0 0-5.12-1.05c-1.484 0-2.92.435-4.155 1.257l-.526.351 1.137 1.422a5.809 5.809 0 0 0 4.558 2.19 5.82 5.82 0 0 0 2.05-.371l2.956-1.108a21.997 21.997 0 0 1-1.122 6.518l-.146.441 1.847 1.109a3.481 3.481 0 0 1-3.47 3.274 3.484 3.484 0 0 1-3.48-3.48v-.29c0-.8.65-1.451 1.45-1.451.799 0 1.45.65 1.45 1.45h1.16c0-1.44-1.171-2.61-2.61-2.61a2.614 2.614 0 0 0-2.611 2.61v.29a4.646 4.646 0 0 0 4.641 4.641c.278 0 .549-.028.813-.075l.893 1.19c.426.568.725 1.237.865 1.934a2.71 2.71 0 0 0 2.65 2.173 2.71 2.71 0 0 0 2.65-2.173c.14-.697.44-1.366.865-1.934l.893-1.19c.265.047.536.075.814.075a4.646 4.646 0 0 0 4.64-4.64v-.29c0-1.44-1.17-2.611-2.61-2.611a2.614 2.614 0 0 0-2.61 2.61h1.16c0-.8.65-1.45 1.45-1.45.8 0 1.45.65 1.45 1.45v.29c0 1.92-1.56 3.481-3.48 3.481a3.482 3.482 0 0 1-3.47-3.275l1.846-1.108-.146-.442a21.976 21.976 0 0 1-1.122-6.518l2.955 1.108a5.804 5.804 0 0 0 2.05.373 5.808 5.808 0 0 0 4.56-2.191l1.136-1.422-.526-.35a7.462 7.462 0 0 0-4.154-1.259zm-14.043 3.764a4.666 4.666 0 0 1-1.643.297c-1.429 0-2.76-.64-3.653-1.756l-.327-.408a6.306 6.306 0 0 1 2.964-.737c1.613 0 3.182.322 4.665.957l1.112.477-3.118 1.17zm8.28 12.899c-.53.706-.902 1.537-1.075 2.403a1.546 1.546 0 0 1-1.513 1.24c-.733 0-1.369-.522-1.513-1.241a5.978 5.978 0 0 0-1.074-2.403l-.652-.869c.088-.042.176-.082.26-.13h5.958c.084.048.173.088.26.13l-.652.87zm-.984-2.159H29.86c.468-.582.798-1.28.941-2.042l.663.398.663-.398c.144.763.473 1.46.941 2.042zm9.384-12.198a4.654 4.654 0 0 1-3.652 1.755c-.564 0-1.116-.1-1.643-.298l-3.118-1.169 1.112-.477a11.779 11.779 0 0 1 4.664-.957c1.04 0 2.054.254 2.964.737l-.327.409zM26.134 23.085l1.135.908a1.87 1.87 0 0 0 3.035-1.46v-.182c0-.75-.445-1.423-1.133-1.717l-2.193-.94a6.307 6.307 0 0 0-2.497-.513c-1.985 0-3.88.948-5.082 2.551l-.918 1.218 3.895-.779a4.633 4.633 0 0 1 3.758.914zm-4.358-1.978a5.254 5.254 0 0 1 4.745-.347l2.194.94c.26.111.43.367.43.65v.184a.71.71 0 0 1-1.152.552l-1.135-.907a5.76 5.76 0 0 0-4.71-1.146l-.372.074zM34.493 24.402c.423 0 .837-.145 1.167-.41l1.135-.907a4.64 4.64 0 0 1 3.759-.914l3.876.76-.911-1.214a6.37 6.37 0 0 0-5.071-2.536c-.864 0-1.704.172-2.497.513l-2.194.94a1.867 1.867 0 0 0-1.132 1.717v.183a1.87 1.87 0 0 0 1.868 1.868zm-.708-2.051c0-.284.169-.539.43-.651l2.193-.94a5.147 5.147 0 0 1 2.04-.42c.959 0 1.892.272 2.7.766l-.367-.073a5.812 5.812 0 0 0-4.711 1.146l-1.135.907a.708.708 0 0 1-1.15-.552v-.183z"/>
        </g>
    </g>
</svg>
